<svg width="24" height="24" viewBox="0 0 24 24" fill="none" xmlns="http://www.w3.org/2000/svg">
<path d="M24 8H0V12H24V8ZM2 11L2.863 9H4.138L3.275 11H2ZM4.066 11L4.93 9H6.205L5.342 11H4.066V11ZM6.133 11L6.996 9H8.271L7.407 11H6.133V11ZM8.199 11L9.062 9H10.336L9.473 11H8.199V11ZM11.54 11H10.266L11.129 9H12.404L11.54 11V11ZM21 11C20.448 11 20 10.552 20 10C20 9.448 20.448 9 21 9C21.553 9 22 9.448 22 10C22 10.552 21.553 11 21 11ZM24 14H0V18H24V14ZM2 17L2.863 15H4.138L3.275 17H2ZM4.066 17L4.929 15H6.204L5.341 17H4.066V17ZM6.133 17L6.996 15H8.271L7.407 17H6.133V17ZM8.199 17L9.062 15H10.336L9.473 17H8.199V17ZM11.54 17H10.266L11.129 15H12.404L11.54 17V17ZM21 17C20.448 17 20 16.552 20 16C20 15.448 20.448 15 21 15C21.553 15 22 15.448 22 16C22 16.552 21.553 17 21 17ZM24 20H0V24H24V20ZM2 23L2.863 21H4.138L3.275 23H2ZM4.066 23L4.929 21H6.204L5.341 23H4.066V23ZM6.133 23L6.996 21H8.271L7.407 23H6.133V23ZM8.199 23L9.062 21H10.336L9.473 23H8.199V23ZM11.54 23H10.266L11.129 21H12.404L11.54 23V23ZM21 23C20.448 23 20 22.552 20 22C20 21.448 20.448 21 21 21C21.553 21 22 21.448 22 22C22 22.552 21.553 23 21 23ZM22 6H2L6 0H18L22 6Z" fill="white"/>
</svg>
